<?xml version="1.0" encoding="utf-8"?>
<!-- Generator: Adobe Illustrator 18.0.0, SVG Export Plug-In . SVG Version: 6.00 Build 0)  -->
<!DOCTYPE svg PUBLIC "-//W3C//DTD SVG 1.1//EN" "http://www.w3.org/Graphics/SVG/1.1/DTD/svg11.dtd">
<svg version="1.1"
	 id="Layer_1" xmlns:rdf="http://www.w3.org/1999/02/22-rdf-syntax-ns#" xmlns:cc="http://creativecommons.org/ns#" xmlns:dc="http://purl.org/dc/elements/1.1/"
	 xmlns="http://www.w3.org/2000/svg" xmlns:xlink="http://www.w3.org/1999/xlink" x="0px" y="0px" viewBox="-24 -25 64 66"
	 enable-background="new -24 -25 64 66" xml:space="preserve">
<g transform="matrix(.86667 0 0 .86667 -172.05 -864.43)" display="none">
	<path d="M200.2,999.7c-0.3,0-0.5,0.2-0.5,0.5v12.8c0,0.3,0.2,0.5,0.5,0.5h15.1c0.3,0,0.5-0.2,0.5-0.5l0-10.5c0-0.3-0.2-0.5-0.5-0.5
		l-7.5,0l-2.3-2.3L200.2,999.7z"/>
	<g display="inline">
		<path fill="none" stroke="#EEF5FB" stroke-width="2" stroke-miterlimit="10" d="M215,1013.6h-14.3c-0.4,0-0.7-0.4-0.7-0.8v-12.2
			c0-0.5,0.3-0.8,0.7-0.8h3.1c0.2,0,0.4,0.1,0.5,0.3l2,1.9c0.1,0.2,0.3,0.3,0.5,0.3h8.1c0.4,0,0.7,0.4,0.7,0.8v9.8
			C215.7,1013.2,215.4,1013.6,215,1013.6z"/>
		<line fill="none" stroke="#EEF5FB" stroke-width="5" stroke-miterlimit="10" x1="200" y1="1011.9" x2="216.1" y2="1011.9"/>
	</g>
</g>
<g display="none">
	<path display="inline" fill="none" stroke="#EEF5FB" stroke-width="2" stroke-miterlimit="10" d="M3.7,3.9c0,1.4-1,2.5-2.4,2.7
		C1.1,6.6,1,6.7,1,6.9l0,2.2c0,0.2,0.1,0.3,0.3,0.3c0.4,0,0.7,0.1,1.1,0.3c1.2,0.7,1.6,2.2,1.1,3.4c-0.1,0.2,0,0.3,0.1,0.4l1.9,1.1
		c0.1,0.1,0.3,0.1,0.4-0.1C6,14.2,6.3,14,6.7,13.8c1.2-0.7,2.7-0.3,3.5,0.7c0.1,0.1,0.3,0.2,0.4,0.1l1.9-1.1
		c0.1-0.1,0.2-0.3,0.1-0.4c-0.2-0.3-0.2-0.7-0.2-1.1c0-1.4,1-2.5,2.4-2.7c0.2,0,0.3-0.1,0.3-0.3l0-2.2c0-0.2-0.1-0.3-0.3-0.3
		c-0.4,0-0.7-0.1-1.1-0.3c-1.2-0.7-1.6-2.1-1.1-3.4c0.1-0.2,0-0.3-0.1-0.4l-1.9-1.1c-0.1-0.1-0.3,0-0.4,0.1C9.9,1.8,9.7,2,9.3,2.2
		C8.2,2.9,6.7,2.6,5.9,1.5C5.8,1.3,5.6,1.3,5.4,1.4L3.6,2.5C3.4,2.5,3.4,2.7,3.4,2.8C3.6,3.2,3.7,3.6,3.7,3.9z"/>
	<path display="inline" fill="#EEF5FB" stroke="#EEF5FB" stroke-miterlimit="10" d="M8.9,5.7c1.6,0.6,2.1,2.5,1,3.9
		c-0.7,0.8-1.8,1.1-2.8,0.8C5.6,9.7,5,7.8,6.1,6.4C6.7,5.6,7.9,5.3,8.9,5.7z"/>
</g>
<g>
	<path fill-rule="evenodd" clip-rule="evenodd" fill="#EEF5FB" d="M17.7,39l-1.3-2.1l13.5-22.3c2.2-3.6,2.5-9.1,0.3-12.7L16.5-20.9
		l1-1.6c1.6-2.6,4-2.9,5.4-0.5L39,3.8c1.4,2.3,1.2,6.3-0.3,8.9L23.1,38.5C21.6,41.1,19.1,41.3,17.7,39z"/>
	<path fill-rule="evenodd" clip-rule="evenodd" fill="#EEF5FB" d="M5.8,39l-16.2-26.8c-1.4-2.3-1.2-6.3,0.3-8.9L5.5-22.5
		c1.6-2.6,4-2.9,5.4-0.5L27.1,3.8c1.4,2.3,1.2,6.3-0.3,8.9L11.2,38.5C9.7,41.1,7.2,41.3,5.8,39z"/>
	<path fill-rule="evenodd" clip-rule="evenodd" fill="#EEF5FB" d="M-1.7,39l1.3-2.1l-13.5-22.3c-2.2-3.6-2.5-9.1-0.3-12.7l13.8-22.8
		l-1-1.6c-1.6-2.6-4-2.9-5.4-0.5L-23,3.8c-1.4,2.3-1.2,6.3,0.3,8.9l15.6,25.7C-5.6,41.1-3.1,41.3-1.7,39z"/>
</g>
</svg>
