<?xml version="1.0" encoding="utf-8"?>
<!-- Generator: Adobe Illustrator 18.0.0, SVG Export Plug-In . SVG Version: 6.00 Build 0)  -->
<!DOCTYPE svg PUBLIC "-//W3C//DTD SVG 1.1//EN" "http://www.w3.org/Graphics/SVG/1.1/DTD/svg11.dtd">
<svg version="1.1"
	 id="Layer_1" xmlns:rdf="http://www.w3.org/1999/02/22-rdf-syntax-ns#" xmlns:cc="http://creativecommons.org/ns#" xmlns:dc="http://purl.org/dc/elements/1.1/"
	 xmlns="http://www.w3.org/2000/svg" xmlns:xlink="http://www.w3.org/1999/xlink" x="0px" y="0px" viewBox="0 0 16 16"
	 enable-background="new 0 0 16 16" xml:space="preserve">
<rect x="-62.9" y="-33" fill-opacity="0" width="163.3" height="98"/>
<path opacity="0.5" fill="#EEF5FB" enable-background="new    " d="M5.7,0C2.6,0,0,2.6,0,5.7s2.6,5.7,5.7,5.7c1.1,0,2.2-0.3,3-0.9
	l5.1,5.3c0.1,0.1,0.3,0.2,0.4,0.2c0.2,0,0.3-0.1,0.5-0.2l1.1-1.2c0.2-0.3,0.2-0.6,0-0.8l-5.3-5c0.5-0.9,0.9-1.9,0.9-3
	C11.4,2.6,8.9,0,5.7,0L5.7,0z M5.7,2.3c1.9,0,3.4,1.5,3.4,3.4S7.6,9.1,5.7,9.1S2.3,7.6,2.3,5.7S3.8,2.3,5.7,2.3z"/>
</svg>
