<?xml version="1.0" encoding="utf-8"?>
<!-- Generator: Adobe Illustrator 18.0.0, SVG Export Plug-In . SVG Version: 6.00 Build 0)  -->
<!DOCTYPE svg PUBLIC "-//W3C//DTD SVG 1.1//EN" "http://www.w3.org/Graphics/SVG/1.1/DTD/svg11.dtd">
<svg version="1.1"
	 id="Layer_1" xmlns:rdf="http://www.w3.org/1999/02/22-rdf-syntax-ns#" xmlns:cc="http://creativecommons.org/ns#" xmlns:dc="http://purl.org/dc/elements/1.1/"
	 xmlns="http://www.w3.org/2000/svg" xmlns:xlink="http://www.w3.org/1999/xlink" x="0px" y="0px" viewBox="0 0 16 16"
	 enable-background="new 0 0 16 16" xml:space="preserve">
<g transform="matrix(.86667 0 0 .86667 -172.05 -864.43)">
	<path display="none" d="M200.2,999.7c-0.3,0-0.5,0.2-0.5,0.5v12.8c0,0.3,0.2,0.5,0.5,0.5h15.1c0.3,0,0.5-0.2,0.5-0.5l0-10.5
		c0-0.3-0.2-0.5-0.5-0.5l-7.5,0l-2.3-2.3L200.2,999.7z"/>
	<g>
		<path fill="none" stroke="#EEF5FB" stroke-width="2" stroke-miterlimit="10" d="M215,1013.6h-14.3c-0.4,0-0.7-0.4-0.7-0.8v-12.2
			c0-0.5,0.3-0.8,0.7-0.8h3.1c0.2,0,0.4,0.1,0.5,0.3l2,1.9c0.1,0.2,0.3,0.3,0.5,0.3h8.1c0.4,0,0.7,0.4,0.7,0.8v9.8
			C215.7,1013.2,215.4,1013.6,215,1013.6z"/>
		<line fill="none" stroke="#EEF5FB" stroke-width="4" stroke-miterlimit="10" x1="200" y1="1011.9" x2="216.1" y2="1011.9"/>
	</g>
</g>
</svg>
