<?xml version="1.0" encoding="utf-8"?>
<!-- Generator: Adobe Illustrator 18.0.0, SVG Export Plug-In . SVG Version: 6.00 Build 0)  -->
<!DOCTYPE svg PUBLIC "-//W3C//DTD SVG 1.1//EN" "http://www.w3.org/Graphics/SVG/1.1/DTD/svg11.dtd">
<svg version="1.1"
	 id="Layer_1" xmlns:rdf="http://www.w3.org/1999/02/22-rdf-syntax-ns#" xmlns:cc="http://creativecommons.org/ns#" xmlns:dc="http://purl.org/dc/elements/1.1/"
	 xmlns="http://www.w3.org/2000/svg" xmlns:xlink="http://www.w3.org/1999/xlink" x="0px" y="0px" viewBox="0 0 16 16"
	 enable-background="new 0 0 16 16" xml:space="preserve">
<g>
	<path fill="#EEF5FB" d="M6.9,10c-0.2,0-0.4-0.1-0.6-0.2c-1.5-1.5-1.5-4,0-5.5l3.1-3.1C10.1,0.4,11.1,0,12.1,0s2,0.4,2.8,1.1
		c1.5,1.5,1.5,4,0,5.5l-1.4,1.4c-0.3,0.3-0.9,0.3-1.2,0s-0.3-0.9,0-1.2l1.4-1.4c0.9-0.9,0.9-2.3,0-3.2c-0.4-0.4-1-0.7-1.6-0.7
		s-1.2,0.2-1.6,0.7L7.4,5.4c-0.9,0.9-0.9,2.3,0,3.2c0.3,0.3,0.3,0.9,0,1.2C7.3,9.9,7.1,10,6.9,10L6.9,10z"/>
	<path fill="#EEF5FB" d="M3.9,16c-1,0-2-0.4-2.8-1.1c-1.5-1.5-1.5-4,0-5.5l1.4-1.4c0.3-0.3,0.9-0.3,1.2,0C4,8.3,4,8.8,3.7,9.1
		l-1.4,1.4c-0.9,0.9-0.9,2.3,0,3.2c0.4,0.4,1,0.7,1.6,0.7s1.2-0.2,1.6-0.7l3.1-3.1c0.9-0.9,0.9-2.3,0-3.2c-0.3-0.3-0.3-0.9,0-1.2
		s0.9-0.3,1.2,0c1.5,1.5,1.5,4,0,5.5l-3.1,3.1C5.9,15.6,4.9,16,3.9,16z"/>
</g>
</svg>
