<?xml version="1.0" encoding="utf-8"?>
<!-- Generator: Adobe Illustrator 18.0.0, SVG Export Plug-In . SVG Version: 6.00 Build 0)  -->
<!DOCTYPE svg PUBLIC "-//W3C//DTD SVG 1.1//EN" "http://www.w3.org/Graphics/SVG/1.1/DTD/svg11.dtd">
<svg version="1.1"
	 id="Layer_1" xmlns:rdf="http://www.w3.org/1999/02/22-rdf-syntax-ns#" xmlns:cc="http://creativecommons.org/ns#" xmlns:dc="http://purl.org/dc/elements/1.1/"
	 xmlns="http://www.w3.org/2000/svg" xmlns:xlink="http://www.w3.org/1999/xlink" x="0px" y="0px" viewBox="0 0 22 22"
	 enable-background="new 0 0 22 22" xml:space="preserve">
<g transform="matrix(.068322 0 0 .068322 -10.114 -50.902)" display="none">
	<path display="inline" d="M309.3,745.9L352.4,854l117.6,9.3l-89.4,74.4l27.5,114.7l-98.4-62.1L209.1,1052l28.6-112.8L148,862.6
		l116.1-7.6L309.3,745.9z"/>
</g>
<path display="none" fill="#EEF5FB" d="M21.9,8.4l-7.3-1.1c0,0-0.1,0-0.1-0.1l-3.3-6.7c-0.1-0.1-0.2-0.1-0.3,0L7.6,7.3
	c0,0-0.1,0.1-0.1,0.1L0.1,8.4C0,8.4,0,8.6,0,8.7l5.3,5.2c0,0,0.1,0.1,0,0.1l-1.3,7.3c0,0.1,0.1,0.2,0.2,0.2l6.6-3.5c0,0,0.1,0,0.1,0
	l6.6,3.5c0.1,0.1,0.2,0,0.2-0.2L16.6,14c0,0,0-0.1,0-0.1L22,8.7C22,8.6,22,8.4,21.9,8.4z M10.9,16.3l-4.5,2.4
	c-0.1,0.1-0.2,0-0.2-0.2L7,13.4c0,0,0-0.1,0-0.1L3.3,9.7c-0.1-0.1,0-0.2,0.1-0.2l5.1-0.7c0,0,0.1,0,0.1-0.1l2.3-4.6
	c0.1-0.1,0.2-0.1,0.3,0l2.3,4.6c0,0,0.1,0.1,0.1,0.1l5.1,0.7c0.1,0,0.2,0.2,0.1,0.2L15,13.3c0,0-0.1,0.1,0,0.1l0.9,5.1
	c0,0.1-0.1,0.2-0.2,0.2l-4.5-2.4C11,16.2,11,16.2,10.9,16.3z"/>
<path fill="#EEF5FB" d="M18.6,15.1c-1,0-1.8,0.4-2.5,1l-9.3-4.6c0-0.2,0-0.4,0-0.5s0-0.4,0-0.5l9.3-4.6c0.6,0.6,1.5,1,2.5,1
	c1.9,0,3.4-1.5,3.4-3.4S20.5,0,18.6,0c-1.9,0-3.4,1.5-3.4,3.4c0,0.2,0,0.4,0,0.5L5.9,8.6c-0.6-0.6-1.5-1-2.5-1C1.5,7.6,0,9.1,0,11
	s1.5,3.4,3.4,3.4c1,0,1.8-0.4,2.5-1l9.3,4.6c0,0.2,0,0.4,0,0.5c0,1.9,1.5,3.4,3.4,3.4c1.9,0,3.4-1.5,3.4-3.4S20.5,15.1,18.6,15.1z"
	/>
</svg>
