<?xml version="1.0" encoding="utf-8"?>
<!-- Generator: Adobe Illustrator 18.0.0, SVG Export Plug-In . SVG Version: 6.00 Build 0)  -->
<!DOCTYPE svg PUBLIC "-//W3C//DTD SVG 1.1//EN" "http://www.w3.org/Graphics/SVG/1.1/DTD/svg11.dtd">
<svg version="1.1"
	 id="Layer_1" xmlns:rdf="http://www.w3.org/1999/02/22-rdf-syntax-ns#" xmlns:cc="http://creativecommons.org/ns#" xmlns:dc="http://purl.org/dc/elements/1.1/"
	 xmlns="http://www.w3.org/2000/svg" xmlns:xlink="http://www.w3.org/1999/xlink" x="0px" y="0px" viewBox="0 0 22 22"
	 enable-background="new 0 0 22 22" xml:space="preserve">
<path fill="#EEF5FB" d="M21.9,8.4l-7.3-1.1c0,0-0.1,0-0.1-0.1l-3.3-6.7c-0.1-0.1-0.2-0.1-0.3,0L7.6,7.3L7.5,7.4l-7.4,1
	C0,8.4,0,8.6,0,8.7l5.3,5.2c0,0,0.1,0.1,0,0.1L4,21.3c0,0.1,0.1,0.2,0.2,0.2l6.6-3.5h0.1l6.6,3.5c0.1,0.1,0.2,0,0.2-0.2L16.6,14
	v-0.1L22,8.7C22,8.6,22,8.4,21.9,8.4z M10.9,16.3l-4.5,2.4c-0.1,0.1-0.2,0-0.2-0.2L7,13.4v-0.1L3.3,9.7c-0.1-0.1,0-0.2,0.1-0.2
	l5.1-0.7c0,0,0.1,0,0.1-0.1l2.3-4.6C11,4,11.1,4,11.2,4.1l2.3,4.6l0.1,0.1l5.1,0.7c0.1,0,0.2,0.2,0.1,0.2L15,13.3c0,0-0.1,0.1,0,0.1
	l0.9,5.1c0,0.1-0.1,0.2-0.2,0.2l-4.5-2.4C11,16.2,11,16.2,10.9,16.3z"/>
</svg>
